<svg xmlns="http://www.w3.org/2000/svg" width="26.786" height="25" viewBox="0 0 26.786 25">
  <path id="Path_192" data-name="Path 192" d="M8.273,72.233a4.81,4.81,0,0,0-3.7,1.786H2.706a3.2,3.2,0,0,1-1.925-.565A1.912,1.912,0,0,1,0,71.8q0-4.925,1.73-4.925a2.662,2.662,0,0,1,.607.293,9.175,9.175,0,0,0,1.36.593,4.9,4.9,0,0,0,1.66.3,5.6,5.6,0,0,0,1.855-.321,6.956,6.956,0,0,0-.07.921,6.143,6.143,0,0,0,1.13,3.571ZM23.214,81.12A3.477,3.477,0,0,1,22.2,83.763a3.762,3.762,0,0,1-2.706.97H7.3a3.762,3.762,0,0,1-2.706-.97A3.477,3.477,0,0,1,3.571,81.12q0-.739.049-1.444a14.209,14.209,0,0,1,.2-1.521,11.828,11.828,0,0,1,.37-1.514,7.172,7.172,0,0,1,.6-1.36,4.905,4.905,0,0,1,.865-1.13A3.64,3.64,0,0,1,6.843,73.4,4.189,4.189,0,0,1,8.4,73.126a1.644,1.644,0,0,1,.6.3q.46.3,1.018.67a6.116,6.116,0,0,0,1.493.67,6.063,6.063,0,0,0,3.767,0,6.116,6.116,0,0,0,1.493-.67q.558-.37,1.018-.67a1.644,1.644,0,0,1,.6-.3,4.189,4.189,0,0,1,1.556.279,3.64,3.64,0,0,1,1.193.746A4.905,4.905,0,0,1,22,75.281a7.172,7.172,0,0,1,.6,1.36,11.825,11.825,0,0,1,.37,1.514,14.21,14.21,0,0,1,.2,1.521q.049.7.049,1.444ZM8.929,63.3A3.441,3.441,0,0,1,7.882,65.83a3.441,3.441,0,0,1-2.525,1.046A3.441,3.441,0,0,1,2.832,65.83a3.57,3.57,0,0,1,0-5.05,3.441,3.441,0,0,1,2.525-1.046,3.441,3.441,0,0,1,2.525,1.046A3.441,3.441,0,0,1,8.929,63.3Zm9.821,5.357a5.359,5.359,0,0,1-5.357,5.357,5.357,5.357,0,0,1,0-10.714,5.359,5.359,0,0,1,5.357,5.357ZM26.786,71.8A1.912,1.912,0,0,1,26,73.454a3.2,3.2,0,0,1-1.925.565H22.21a4.81,4.81,0,0,0-3.7-1.786,6.143,6.143,0,0,0,1.13-3.571,6.955,6.955,0,0,0-.07-.921,5.6,5.6,0,0,0,1.855.321,4.9,4.9,0,0,0,1.66-.3,9.175,9.175,0,0,0,1.36-.593,2.662,2.662,0,0,1,.607-.293Q26.786,66.876,26.786,71.8ZM25,63.3a3.571,3.571,0,0,1-6.1,2.525,3.571,3.571,0,1,1,5.05-5.05A3.441,3.441,0,0,1,25,63.3Z" transform="translate(0 -59.733)" fill="#fff"/>
</svg>
