<svg xmlns="http://www.w3.org/2000/svg" width="22.807" height="19.888" viewBox="0 0 22.807 19.888">
  <g id="Group_7" data-name="Group 7" transform="translate(0 0)">
    <path id="Path_5" data-name="Path 5" d="M1405.483,930.735v11.13c-.009.056-.02.111-.028.167a3.117,3.117,0,0,1-3.078,2.649q-8.288-.017-16.578-.006a3.069,3.069,0,0,1-2.983-2.146,5.615,5.615,0,0,1-.14-.642V930.667c.018-.1.034-.208.055-.312a3.1,3.1,0,0,1,3.067-2.5c.82.013,1.641,0,2.463.005a.14.14,0,0,0,.159-.115c.12-.36.242-.719.371-1.075a3.87,3.87,0,0,1,.3-.745,2.259,2.259,0,0,1,1.985-1.132c2-.008,4.005,0,6.008,0a1.756,1.756,0,0,1,.4.035,2.273,2.273,0,0,1,1.761,1.5c.175.5.336,1,.5,1.5a.125.125,0,0,0,.142.1q1.077-.005,2.155,0c.235,0,.472,0,.705.021a3,3,0,0,1,2.6,2.129C1405.407,930.294,1405.438,930.517,1405.483,930.735Zm-11.464.257a5.39,5.39,0,0,0-5.356,5.343,5.344,5.344,0,1,0,5.356-5.343Z" transform="translate(-1382.676 -924.793)" fill="#fff"/>
    <path id="Path_6" data-name="Path 6" d="M1401.844,947.537a3.418,3.418,0,1,1,3.424-3.408A3.425,3.425,0,0,1,1401.844,947.537Z" transform="translate(-1390.444 -932.638)" fill="#fff"/>
  </g>
</svg>
