<svg id="Group_119" data-name="Group 119" xmlns="http://www.w3.org/2000/svg" width="14.231" height="14.231" viewBox="0 0 14.231 14.231">
  <path id="Path_25" data-name="Path 25" d="M0,0H14.231V14.231H0Z" fill="none"/>
  <path id="Path_26" data-name="Path 26" d="M3,11.573v1.8a.294.294,0,0,0,.3.3H5.1a.278.278,0,0,0,.208-.089l6.475-6.469L9.558,4.891,3.089,11.36A.291.291,0,0,0,3,11.573ZM13.5,5.395a.591.591,0,0,0,0-.836L12.114,3.171a.591.591,0,0,0-.836,0L10.193,4.256,12.416,6.48,13.5,5.395Z" transform="translate(-1.221 -1.22)" fill="#fff"/>
</svg>
