<svg xmlns="http://www.w3.org/2000/svg" width="18.971" height="18.969" viewBox="0 0 18.971 18.969">
  <g id="Group_8" data-name="Group 8" transform="translate(0.5 0.5)">
    <path id="Path_7" data-name="Path 7" d="M1676.54,924.637v-2.842a.1.1,0,0,1,.1-.1h2.842a.1.1,0,0,1,.1.1v.812a.1.1,0,0,1-.1.1h-1.827a.1.1,0,0,0-.1.1v1.828a.1.1,0,0,1-.1.1h-.814A.1.1,0,0,1,1676.54,924.637Z" transform="translate(-1676.54 -921.694)" fill="#fff" stroke="#fff" stroke-width="1"/>
    <path id="Path_8" data-name="Path 8" d="M1709.792,924.743h-.81a.1.1,0,0,1-.1-.1v-1.829a.1.1,0,0,0-.1-.1h-1.83a.1.1,0,0,1-.1-.1V921.8a.1.1,0,0,1,.1-.1h2.841a.1.1,0,0,1,.1.1v2.843A.1.1,0,0,1,1709.792,924.743Z" transform="translate(-1691.923 -921.698)" fill="#fff" stroke="#fff" stroke-width="1"/>
    <path id="Path_9" data-name="Path 9" d="M1679.586,954.132v.814a.1.1,0,0,1-.1.1h-2.843a.1.1,0,0,1-.1-.1V952.1a.1.1,0,0,1,.1-.1h.811a.1.1,0,0,1,.1.1v1.827a.1.1,0,0,0,.1.1h1.83A.1.1,0,0,1,1679.586,954.132Z" transform="translate(-1676.542 -937.077)" fill="#fff" stroke="#fff" stroke-width="1"/>
    <path id="Path_10" data-name="Path 10" d="M1708.981,952h.814a.1.1,0,0,1,.1.1v2.842a.1.1,0,0,1-.1.1h-2.842a.1.1,0,0,1-.1-.1v-.811a.1.1,0,0,1,.1-.1h1.827a.1.1,0,0,0,.1-.1V952.1A.1.1,0,0,1,1708.981,952Z" transform="translate(-1691.925 -937.078)" fill="#fff" stroke="#fff" stroke-width="1"/>
  </g>
</svg>
