<svg xmlns="http://www.w3.org/2000/svg" width="29" height="30" viewBox="0 0 29 30">
  <g id="Group_4" data-name="Group 4" transform="translate(0.003 0.403)">
    <rect id="Rectangle_6" data-name="Rectangle 6" width="29" height="30" transform="translate(-0.003 -0.403)" fill="none"/>
    <path id="Path_7" data-name="Path 7" d="M23.881,18.284a.881.881,0,1,1,0-1.761.881.881,0,0,0,0-1.761.881.881,0,1,1,0-1.761,2.642,2.642,0,0,1,0,5.284Z" transform="translate(-1.738 -0.938)" fill="#fff"/>
    <path id="Path_8" data-name="Path 8" d="M22.2,21.274a.922.922,0,0,1,0-1.843,4.608,4.608,0,0,0,0-9.215.922.922,0,0,1,0-1.843,6.451,6.451,0,0,1,0,12.9ZM4.686,9.294H2.843A1.845,1.845,0,0,0,1,11.137V18.51a1.845,1.845,0,0,0,1.843,1.843H4.686ZM18.427,1.21a1.8,1.8,0,0,0-1.87.117L6.529,8.433V21.214L16.556,28.32l.013.009a1.8,1.8,0,0,0,1.857.108,1.9,1.9,0,0,0,1-1.694V2.9A1.9,1.9,0,0,0,18.427,1.21Z" transform="translate(-0.119 -0.12)" fill="#fff"/>
  </g>
</svg>
