<svg xmlns="http://www.w3.org/2000/svg" xmlns:xlink="http://www.w3.org/1999/xlink" width="29" height="29" viewBox="0 0 29 29">
  <defs>
    <clipPath id="clip-path">
      <rect id="Rectangle_2" data-name="Rectangle 2" width="29" height="29" transform="translate(0.205 0.205)" fill="#fff"/>
    </clipPath>
  </defs>
  <g id="Group_1" data-name="Group 1" transform="translate(-0.205 -0.205)" clip-path="url(#clip-path)">
    <path id="Path_1" data-name="Path 1" d="M18.912,29.258a12.513,12.513,0,0,1-3.917.04.9.9,0,0,1-.652-.583L13.6,26.171a1.477,1.477,0,0,0-.59-.753l-2.679-1.546a1.431,1.431,0,0,0-.945-.124l-2.523.676a.885.885,0,0,1-.83-.261A12.465,12.465,0,0,1,4.163,20.94a.9.9,0,0,1,.178-.856l1.9-1.978a1.479,1.479,0,0,0,.357-.888V14.125a1.43,1.43,0,0,0-.364-.88L4.339,11.354a.877.877,0,0,1-.186-.848A15.019,15.019,0,0,1,6.009,7.3a.9.9,0,0,1,.832-.272l2.7.663a1.48,1.48,0,0,0,.947-.135l2.678-1.547a1.43,1.43,0,0,0,.58-.756l.682-2.546a.874.874,0,0,1,.642-.584,12.459,12.459,0,0,1,3.677.018.885.885,0,0,1,.641.589l.676,2.523a1.432,1.432,0,0,0,.58.756L23.323,7.56a1.431,1.431,0,0,0,.945.124l2.523-.676a.885.885,0,0,1,.83.26,12.506,12.506,0,0,1,1.925,3.351.889.889,0,0,1-.191.85l-1.775,1.775a1.43,1.43,0,0,0-.364.88v3.093a1.429,1.429,0,0,0,.364.88l1.8,1.8a.893.893,0,0,1,.193.851,13.705,13.705,0,0,1-.887,1.812,13.942,13.942,0,0,1-1.04,1.566.883.883,0,0,1-.829.262l-2.4-.642a1.431,1.431,0,0,0-.945.124L20.8,25.418a1.429,1.429,0,0,0-.58.756l-.667,2.488A.9.9,0,0,1,18.912,29.258ZM10.675,15.716A6.186,6.186,0,1,1,16.861,21.9,6.189,6.189,0,0,1,10.675,15.716Z" transform="translate(-2.433 -1.287)" fill="#fff" fill-rule="evenodd"/>
  </g>
</svg>
