<svg xmlns="http://www.w3.org/2000/svg" width="24.728" height="17.5" viewBox="0 0 24.728 17.5">
  <g id="Group_6" data-name="Group 6" transform="translate(0 0)">
    <path id="Path_2" data-name="Path 2" d="M1543.176,937.24q0,3.682,0,7.364a1.3,1.3,0,0,1-1.443,1.379,1.463,1.463,0,0,1-.632-.25c-1.979-1.3-3.949-2.617-5.93-3.914a1.29,1.29,0,0,0-.639-.2c-.83-.023-1.661,0-2.492-.013a2.2,2.2,0,0,1-2.318-2.326q0-2.034,0-4.067a2.207,2.207,0,0,1,2.333-2.351c.831,0,1.662.012,2.491-.009a1.218,1.218,0,0,0,.607-.183q2.993-1.947,5.968-3.924a1.316,1.316,0,0,1,2.088,1.125q0,3.683,0,7.365Z" transform="translate(-1529.719 -928.49)" fill="#fff"/>
    <path id="Path_3" data-name="Path 3" d="M1568.973,937.314a8.8,8.8,0,0,1-5.726,8.506.885.885,0,0,1-1.017-.157.714.714,0,0,1-.168-.9,1.452,1.452,0,0,1,.65-.529,7.031,7.031,0,0,0,0-13.168c-.51-.193-.75-.484-.73-.886a.845.845,0,0,1,1.191-.737,8.714,8.714,0,0,1,5.8,7.874Z" transform="translate(-1544.245 -928.89)" fill="#fff"/>
    <path id="Path_4" data-name="Path 4" d="M1563.59,940.28a4.852,4.852,0,0,1-3.584,4.883,1.4,1.4,0,0,1-.776-.037.738.738,0,0,1-.453-.8.823.823,0,0,1,.689-.753,3.083,3.083,0,0,0,.145-5.991,2.717,2.717,0,0,1-.352-.1.85.85,0,0,1-.488-.964.772.772,0,0,1,.861-.628,5.237,5.237,0,0,1,1.477.5A4.591,4.591,0,0,1,1563.59,940.28Z" transform="translate(-1542.797 -931.817)" fill="#fff"/>
  </g>
</svg>
